<?xml version="1.0" encoding="UTF-8" standalone="no"?>
<!-- Created with Inkscape (http://www.inkscape.org/) -->

<svg
   width="1000"
   height="1000"
   viewBox="0 0 264.58333 264.58333"
   version="1.1"
   id="svg1"
   inkscape:version="1.4.4 (dcaf3e7d9e, 2026-05-05)"
   sodipodi:docname="logo.svg"
   xml:space="preserve"
   xmlns:inkscape="http://www.inkscape.org/namespaces/inkscape"
   xmlns:sodipodi="http://sodipodi.sourceforge.net/DTD/sodipodi-0.dtd"
   xmlns="http://www.w3.org/2000/svg"
   xmlns:svg="http://www.w3.org/2000/svg"><sodipodi:namedview
     id="namedview1"
     pagecolor="#ffffff"
     bordercolor="#000000"
     borderopacity="0.25"
     inkscape:showpageshadow="2"
     inkscape:pageopacity="0.0"
     inkscape:pagecheckerboard="0"
     inkscape:deskcolor="#d1d1d1"
     inkscape:document-units="mm"
     showguides="true"
     inkscape:zoom="4.1585016"
     inkscape:cx="754.23802"
     inkscape:cy="732.59561"
     inkscape:window-width="1920"
     inkscape:window-height="1016"
     inkscape:window-x="0"
     inkscape:window-y="0"
     inkscape:window-maximized="1"
     inkscape:current-layer="layer1" /><defs
     id="defs1" /><g
     inkscape:label="Layer 1"
     inkscape:groupmode="layer"
     id="layer1"
     transform="translate(-19.962437,-28.791733)"><path
       style="fill:#fffbea;fill-opacity:1;stroke:none;stroke-width:0.999998"
       d="m 98.22831,203.42988 c -1.66683,1.79418 -2.208214,4.42177 -3.557869,6.46787 -4.471288,8.21509 -10.837943,15.21658 -17.881009,21.28748 -0.127616,1.11976 1.340768,0.0166 1.871902,-0.10757 12.332722,-5.4688 25.651116,-8.02759 38.861526,-10.31291 0.60386,-0.83438 -1.2115,-1.41066 -1.55851,-2.09102 -5.78459,-5.12348 -11.52995,-10.30624 -17.489293,-15.22352 -0.07662,-0.0393 -0.165471,-0.0451 -0.246747,-0.0203 z"
       id="path1" /><path
       style="fill:#fffbea;fill-opacity:1;stroke:none;stroke-width:0.999999"
       d="m 205.44335,202.41418 c -6.48146,5.80366 -13.11667,11.44737 -19.4543,17.40407 0.1109,0.98669 1.76597,0.61522 2.48642,0.95594 12.43798,2.00999 24.8524,4.9316 36.44952,9.9557 1.25528,0.41473 2.35651,1.52419 3.69753,1.55326 0.52096,-0.87886 -1.29185,-1.31594 -1.67526,-1.94901 -9.20168,-7.31552 -16.5136,-16.95464 -21.05013,-27.81772 l -0.20119,-0.16402 z"
       id="path2" /><path
       style="fill:#fffbea;fill-opacity:1;stroke:none;stroke-width:6.88906;stroke-dasharray:none;stroke-opacity:1"
       d="m 150.88295,49.945773 c -11.38029,-0.101135 -22.93093,2.101276 -33.08003,7.493234 -11.16739,5.852921 -19.635547,16.375348 -23.779308,28.407083 -2.728267,7.973285 -4.570933,16.43037 -4.046457,24.92055 0.1836,12.9929 5.813153,24.9407 9.033494,37.28298 3.664561,12.66548 4.609721,26.12243 3.084721,39.19812 -0.38953,3.71056 -1.47687,7.36331 -2.06862,10.98771 16.18304,14.52522 32.30241,29.14613 48.66234,43.47023 1.08832,0.74826 2.00623,2.04566 3.31519,2.33319 16.99781,-15.17557 33.9021,-30.49915 50.78144,-45.82416 1.02825,-0.99825 -0.34726,-2.61144 -0.34249,-3.84325 -2.96595,-13.59466 -2.52728,-27.91627 0.51225,-41.47844 2.94793,-13.32331 9.12226,-25.88151 10.2596,-39.61644 0.98487,-13.789193 -2.61823,-27.903967 -9.97579,-39.500691 -5.93127,-9.389467 -15.30278,-16.057149 -25.52531,-19.754335 -8.56261,-3.126829 -17.76583,-4.298976 -26.83103,-4.075781 z"
       id="path6" /><path
       id="path1-3-4-1"
       style="fill:none;stroke:#ffcf07;stroke-width:7;stroke-dasharray:none;stroke-opacity:1"
       d="m 151.98605,50.14876 c 30.85872,-0.005 58.63299,13.73431 64.01129,53.20885 2.46885,18.1204 -5.69417,34.18888 -8.79837,45.65082 -14.51569,53.59772 14.64379,92.67767 70.61516,93.81728 M 152.01851,50.14961 c -30.85872,-0.005 -58.632993,13.7343 -64.011294,53.20884 -2.46885,18.1204 5.69417,34.18888 8.798371,45.65082 14.515693,53.59772 -14.64379,92.67767 -70.615161,93.81728" /><ellipse
       style="fill:#ffffff;fill-opacity:1;stroke:#000000;stroke-width:1.5;stroke-dasharray:none;stroke-opacity:1"
       id="path1-6"
       cx="117.84119"
       cy="149.83835"
       rx="15.465663"
       ry="17.806065" /><ellipse
       style="fill:#000000;fill-opacity:1;stroke:none;stroke-width:1.5;stroke-dasharray:none"
       id="path1-6-2-5-1"
       cx="123.54916"
       cy="154.8886"
       rx="7.6590657"
       ry="8.131917" /><ellipse
       style="fill:#ffffff;fill-opacity:1;stroke:#000000;stroke-width:1.5;stroke-dasharray:none;stroke-opacity:1"
       id="path1-6-7"
       cx="186.16336"
       cy="149.83835"
       rx="15.465663"
       ry="17.806065" /><ellipse
       style="fill:#000000;fill-opacity:1;stroke:none;stroke-width:1.5;stroke-dasharray:none"
       id="path1-6-2-5-1-2"
       cx="191.87132"
       cy="154.8886"
       rx="7.6590657"
       ry="8.131917" /><path
       style="fill:none;fill-opacity:1;stroke:#ffcf07;stroke-width:7;stroke-dasharray:none;stroke-opacity:1"
       d="m 96.444625,197.56389 55.550715,48.76293 55.1908,-48.85291"
       id="path4" /><g
       id="g1"
       transform="matrix(1.0104634,0,0,1.0106534,-1.5865692,-2.922801)"
       style="stroke-width:0.989552"><ellipse
         style="fill:#fcfcfc;fill-opacity:1;stroke:#000000;stroke-width:1.48433;stroke-dasharray:none;stroke-opacity:1"
         id="path13"
         cx="151.63127"
         cy="246.61444"
         rx="85.993965"
         ry="27.739935" /><ellipse
         style="fill:#f5f5f5;fill-opacity:1;stroke:#000000;stroke-width:0.989552;stroke-dasharray:none;stroke-opacity:1"
         id="path13-9"
         cx="151.63127"
         cy="249.32115"
         rx="57.536289"
         ry="18.611605" /><text
         xml:space="preserve"
         style="font-size:62.697px;writing-mode:lr-tb;direction:ltr;fill:#ff5307;fill-opacity:1;stroke:none;stroke-width:1.08851;stroke-dasharray:none;stroke-opacity:1"
         x="85.572525"
         y="437.66534"
         id="text15"
         transform="matrix(1.6494156,-0.03070458,-0.02614104,0.60676197,0,0)"><tspan
           sodipodi:role="line"
           id="tspan15"
           style="stroke-width:1.08851"
           x="85.572525"
           y="437.66534">?</tspan></text></g></g></svg>
