<?xml version="1.0" encoding="UTF-8" standalone="no"?>
<!-- Created with Inkscape (http://www.inkscape.org/) -->

<svg
   width="1000"
   height="1000"
   viewBox="0 0 264.58333 264.58333"
   version="1.1"
   id="svg1"
   inkscape:version="1.4.4 (dcaf3e7d9e, 2026-05-05)"
   sodipodi:docname="logo.svg"
   xml:space="preserve"
   inkscape:export-filename="logo.png"
   inkscape:export-xdpi="19.200001"
   inkscape:export-ydpi="19.200001"
   xmlns:inkscape="http://www.inkscape.org/namespaces/inkscape"
   xmlns:sodipodi="http://sodipodi.sourceforge.net/DTD/sodipodi-0.dtd"
   xmlns="http://www.w3.org/2000/svg"
   xmlns:svg="http://www.w3.org/2000/svg"><sodipodi:namedview
     id="namedview1"
     pagecolor="#ffffff"
     bordercolor="#000000"
     borderopacity="0.25"
     inkscape:showpageshadow="2"
     inkscape:pageopacity="0.0"
     inkscape:pagecheckerboard="0"
     inkscape:deskcolor="#d1d1d1"
     inkscape:document-units="mm"
     showguides="true"
     inkscape:zoom="0.5198127"
     inkscape:cx="-32.704087"
     inkscape:cy="564.62645"
     inkscape:window-width="2560"
     inkscape:window-height="1376"
     inkscape:window-x="0"
     inkscape:window-y="0"
     inkscape:window-maximized="1"
     inkscape:current-layer="layer1" /><defs
     id="defs1" /><g
     inkscape:label="Layer 1"
     inkscape:groupmode="layer"
     id="layer1"
     transform="translate(-19.962437,-28.791733)"><path
       style="fill:#fffbea;stroke-width:3.77952"
       d="m 501.70565,90.901883 c -27.90409,-0.153216 -56.01416,1.757396 -82.95158,9.498657 -46.09712,11.98928 -89.0687,39.19992 -115.34205,79.49218 -20.71372,31.18579 -32.17441,67.89447 -36.73882,104.844 -1.57606,24.94077 -1.72765,50.3416 4.84101,74.66103 8.9343,36.8544 22.97386,72.17314 33.02757,108.67574 2.10259,4.7816 9.2922,1.55155 7.83223,-3.19563 -1.07587,-16.84707 2.51448,-34.45921 12.22646,-48.54513 9.35407,-11.87727 21.4795,-22.70951 37.19413,-24.56 24.94069,-4.54876 49.6272,12.11853 59.23775,34.70652 7.66568,16.07921 7.74142,34.38069 3.94419,51.46859 -6.27371,21.90087 -24.16911,42.46622 -47.69033,45.29877 -17.19152,2.4854 -35.20645,-3.70582 -46.65435,-16.89663 -7.81502,-7.70617 -11.31626,-18.29865 -16.57643,-27.568 -4.0195,-3.63142 -8.77559,2.07045 -6.50661,6.19116 8.1038,46.73053 9.75534,95.30374 -2.46821,141.44771 -11.40037,44.998 -35.49481,86.68893 -70.01059,117.93906 -4.35153,4.59044 -24.56352,9.14917 -28.32618,14.32531 -1.76628,5.6401 5.20392,12.53724 8.61366,9.45701 61.27782,-26.49533 143.04737,-43.00345 209.16729,-48.64976 42.00166,-2.24736 84.69921,-2.91276 126.91546,-1.11564 71.94486,4.31078 144.54511,14.08323 211.50734,42.00635 6.02667,1.70612 24.59093,13.67373 31.09781,12.5853 5.45135,-3.48031 4.3663,-4.91347 0.80117,-7.00837 C 763.23095,741.15666 720.0995,698.84379 704.75332,661.55423 682.18779,608.1493 679.96953,548.5292 689.38781,491.87451 c -0.0266,-4.78679 4.28871,-13.47361 -2.55027,-14.69895 -5.6499,1.23527 -5.26408,9.13134 -8.49074,13.23358 -10.17502,19.89818 -31.51899,36.5385 -54.89131,33.13055 -17.51227,-1.27916 -32.9638,-12.27925 -41.85516,-27.12817 -8.09715,-11.91179 -11.4274,-26.35897 -10.62958,-40.64715 -0.64756,-18.60901 7.45499,-37.51451 21.42262,-50.61168 18.71165,-17.92636 50.83819,-18.73742 70.07294,-1.14411 17.16229,14.54477 24.37719,37.56985 23.31535,59.39813 -2.64568,6.04721 5.62274,13.19161 8.15213,5.12327 12.77443,-52.10841 37.80354,-101.87067 38.89665,-156.40396 C 732.7997,268.15004 720.99082,223.99549 698.56847,186.12525 675.27944,146.65277 636.21345,117.90048 592.70431,104.36679 563.37623,95.078645 532.48555,90.328485 501.70565,90.901883 Z"
       id="path1"
       transform="matrix(0.26458333,0,0,0.26458333,19.962437,28.791733)"
       sodipodi:nodetypes="ccccccccccccccccccccccccccccccccccccccc" /><path
       id="path1-3-4-1"
       style="fill:none;stroke:#ffcf07;stroke-width:7;stroke-dasharray:none;stroke-opacity:1"
       d="m 151.98605,50.14876 c 30.85872,-0.005 58.63299,13.73431 64.01129,53.20885 2.46885,18.1204 -5.69417,34.18888 -8.79837,45.65082 -14.51569,53.59772 14.64379,92.67767 70.61516,93.81728 M 152.01851,50.14961 c -30.85872,-0.005 -58.632993,13.7343 -64.011294,53.20884 -2.46885,18.1204 5.69417,34.18888 8.798371,45.65082 14.515693,53.59772 -14.64379,92.67767 -70.615161,93.81728" /><ellipse
       style="fill:#ffffff;fill-opacity:1;stroke:#000000;stroke-width:1.5;stroke-dasharray:none;stroke-opacity:1"
       id="path1-6"
       cx="117.84119"
       cy="149.83835"
       rx="15.465663"
       ry="17.806065" /><ellipse
       style="fill:#000000;fill-opacity:1;stroke:none;stroke-width:1.5;stroke-dasharray:none"
       id="path1-6-2-5-1"
       cx="123.54916"
       cy="154.8886"
       rx="7.6590657"
       ry="8.131917" /><ellipse
       style="fill:#ffffff;fill-opacity:1;stroke:#000000;stroke-width:1.5;stroke-dasharray:none;stroke-opacity:1"
       id="path1-6-7"
       cx="186.16336"
       cy="149.83835"
       rx="15.465663"
       ry="17.806065" /><ellipse
       style="fill:#000000;fill-opacity:1;stroke:none;stroke-width:1.5;stroke-dasharray:none"
       id="path1-6-2-5-1-2"
       cx="191.87132"
       cy="154.8886"
       rx="7.6590657"
       ry="8.131917" /><ellipse
       style="fill:#fcfcfc;fill-opacity:1;stroke:#000000;stroke-width:1.5;stroke-dasharray:none;stroke-opacity:1"
       id="path13"
       cx="151.76526"
       cy="246.27492"
       rx="87.027718"
       ry="28.079456" /><ellipse
       style="fill:#f5f5f5;fill-opacity:1;stroke:#000000;stroke-width:1;stroke-dasharray:none;stroke-opacity:1"
       id="path13-9"
       cx="151.63129"
       cy="249.05447"
       rx="58.138313"
       ry="18.809881" /><text
       xml:space="preserve"
       style="font-size:110.258px;writing-mode:lr-tb;direction:ltr;fill:#ff5307;fill-opacity:1;stroke-width:1"
       x="232.86238"
       y="210.48448"
       id="text1"><tspan
         sodipodi:role="line"
         id="tspan1"
         style="fill:#ff5307;fill-opacity:1;stroke-width:1"
         x="232.86238"
         y="210.48448">?</tspan></text></g></svg>
